<!DOCTYPE svg PUBLIC "-//W3C//DTD SVG 1.1//EN" "http://www.w3.org/Graphics/SVG/1.1/DTD/svg11.dtd">
<!-- Uploaded to: SVG Repo, www.svgrepo.com, Transformed by: SVG Repo Mixer Tools -->
<svg fill="#6363ff" width="800px" height="800px" viewBox="-79.2 -79.2 686.40 686.40" xmlns="http://www.w3.org/2000/svg" stroke="#6363ff">
<g id="SVGRepo_bgCarrier" stroke-width="0"/>
<g id="SVGRepo_tracerCarrier" stroke-linecap="round" stroke-linejoin="round"/>
<g id="SVGRepo_iconCarrier">
<title>pass</title>
<path d="M264 456Q210 456 164 429 118 402 91 356 64 310 64 256 64 202 91 156 118 110 164 83 210 56 264 56 318 56 364 83 410 110 437 156 464 202 464 256 464 310 437 356 410 402 364 429 318 456 264 456ZM368 192L332 160 231 282 178 229 146 261 235 350 368 192Z"/>
</g>
</svg>